<svg version="1.1" id="Layer_1" xmlns="http://www.w3.org/2000/svg" xmlns:xlink="http://www.w3.org/1999/xlink" x="0px" y="0px"
	 width="100%" viewBox="0 0 1024 1024" enable-background="new 0 0 1024 1024" xml:space="preserve">
<path fill="#312E29" opacity="1.000000" stroke="none" 
	d="
M575.000000,1025.000000 
	C383.333344,1025.000000 192.166672,1025.000000 1.000000,1025.000000 
	C1.000000,683.666687 1.000000,342.333344 1.000000,1.000000 
	C342.333344,1.000000 683.666687,1.000000 1025.000000,1.000000 
	C1025.000000,342.333344 1025.000000,683.666687 1025.000000,1025.000000 
	C875.166687,1025.000000 725.333313,1025.000000 575.000000,1025.000000 
M522.549011,558.789429 
	C532.640259,558.789429 542.731506,558.789429 553.445679,558.789429 
	C553.445679,527.513672 553.445679,497.000763 553.445679,465.001740 
	C555.739746,467.903381 557.087646,469.553528 558.377563,471.247894 
	C579.675171,499.223663 600.948975,527.217468 622.303528,555.149719 
	C623.425781,556.617737 625.190613,558.566284 626.703003,558.608276 
	C637.464294,558.907104 648.237671,558.767578 659.082520,558.767578 
	C659.082520,501.241364 659.082520,444.340179 659.082520,387.240601 
	C645.215942,387.240601 631.814941,387.240601 617.770752,387.240601 
	C617.770752,418.710510 617.770752,449.861298 617.770752,482.235809 
	C615.926025,479.861298 614.892578,478.583557 613.914734,477.264618 
	C592.678467,448.621765 571.463806,419.962769 550.177124,391.357452 
	C548.953796,389.713562 547.189697,387.323517 545.614685,387.274048 
	C534.366394,386.920837 523.101746,387.085510 511.821472,387.085510 
	C511.821472,444.524384 511.821472,501.457458 511.821472,558.790710 
	C515.308411,558.790710 518.439636,558.790710 522.549011,558.789429 
M814.325134,396.137573 
	C812.981995,395.471558 811.657166,394.765076 810.293030,394.145325 
	C751.949890,367.639038 689.705627,401.534119 683.495178,463.812439 
	C677.520203,523.728394 724.278870,567.152954 780.631165,560.380798 
	C818.227661,555.862610 847.941956,528.392212 855.773132,490.845734 
	C863.691833,452.879547 847.368591,415.123138 814.325134,396.137573 
M480.696442,511.261536 
	C481.908325,503.718506 484.077972,496.186737 484.166656,488.630524 
	C484.555878,455.475739 484.345551,422.313904 484.329987,389.154602 
	C484.329712,388.533508 484.050812,387.912537 483.884644,387.219421 
	C470.154816,387.219421 456.574524,387.219421 442.625519,387.219421 
	C442.625519,389.493164 442.627869,391.476074 442.625122,393.458984 
	C442.587158,420.788483 442.565521,448.118042 442.494659,475.447479 
	C442.481689,480.444611 442.486023,485.457977 442.105347,490.434967 
	C440.951172,505.525635 433.276917,515.620056 420.096893,518.466248 
	C414.993774,519.568298 409.476471,519.613098 404.248077,519.106140 
	C390.794952,517.801392 381.481201,509.084808 379.116730,495.852844 
	C378.243591,490.966675 377.964752,485.921844 377.934570,480.946228 
	C377.758636,451.950989 377.736847,422.954865 377.664246,393.959015 
	C377.658936,391.835876 377.663544,389.712738 377.663544,387.273590 
	C363.280304,387.273590 349.541260,387.273590 335.268341,387.273590 
	C335.268341,389.196106 335.267670,390.983368 335.268494,392.770630 
	C335.277313,412.267883 335.202301,431.765686 335.322327,451.262268 
	C335.415649,466.419769 334.898010,481.647430 336.162689,496.717133 
	C338.612000,525.902527 353.987152,545.920349 381.673950,556.017578 
	C394.939301,560.855408 408.731201,561.779114 422.589539,559.699768 
	C451.309235,555.390442 471.230530,540.136597 480.696442,511.261536 
M275.457825,430.876617 
	C280.643219,434.098816 285.828613,437.321014 291.409607,440.789032 
	C297.789612,431.125366 304.272797,421.305389 310.927002,411.226379 
	C309.594574,409.807068 308.435089,408.405640 307.109344,407.184723 
	C287.212769,388.861145 263.358459,382.589966 236.973267,384.623230 
	C224.807312,385.560760 213.439850,389.426056 203.536606,396.705658 
	C187.836349,408.246582 180.284363,424.048798 181.538437,443.386017 
	C182.791031,462.700378 194.541580,474.409363 211.758926,481.391479 
	C214.997391,482.704742 218.240036,484.061188 221.582993,485.053070 
	C230.682541,487.752930 239.909470,490.041718 248.943466,492.937805 
	C254.769928,494.805603 260.791229,496.736572 265.932465,499.919708 
	C274.435028,505.183960 273.536224,515.991394 264.499237,520.329834 
	C261.296265,521.867493 257.499054,522.787170 253.945953,522.873657 
	C233.363235,523.374451 215.506180,516.205017 199.997025,502.866913 
	C198.669495,501.725220 197.387482,500.530579 195.815933,499.119537 
	C188.406387,509.920319 181.356750,520.196411 174.038010,530.864807 
	C176.568726,533.243835 178.826782,535.679321 181.392700,537.729431 
	C202.994034,554.988708 227.931198,561.654175 255.174866,560.255554 
	C270.283325,559.479980 284.104126,554.863037 296.442322,545.614624 
	C320.685699,527.442566 327.109558,474.808136 284.047455,459.879700 
	C276.661835,457.319305 269.116943,455.211548 261.620087,452.980560 
	C252.690933,450.323364 243.600098,448.138580 234.829102,445.041718 
	C226.896484,442.240906 223.441833,437.420837 224.256531,432.290649 
	C225.125946,426.815796 230.631882,423.125641 238.978455,422.796997 
	C251.556137,422.301758 263.420959,425.308807 275.457825,430.876617 
M904.225220,380.296661 
	C902.963318,370.121185 899.955505,360.685486 892.573181,352.066132 
	C878.494263,366.919525 864.842896,381.321838 850.950439,395.978546 
	C860.480835,405.444733 867.721863,417.553406 870.848450,431.721985 
	C890.896118,429.050842 906.022644,405.740265 904.225220,380.296661 
M806.870667,361.414764 
	C805.965454,363.814972 805.060303,366.215179 804.619385,367.384186 
	C817.883728,374.020081 830.411987,380.287750 844.384827,387.278107 
	C856.995728,373.757019 870.658264,359.108368 884.313293,344.467834 
	C868.507812,329.071136 825.179199,329.177673 806.870667,361.414764 
M348.087250,644.602417 
	C349.532837,648.313477 350.978424,652.024597 352.423981,655.735657 
	C352.866882,655.639709 353.309784,655.543762 353.752686,655.447815 
	C358.230957,645.199768 362.709198,634.951660 367.697205,623.537109 
	C372.685669,634.968323 377.156433,645.213257 382.208313,656.789856 
	C390.263611,635.984192 397.772552,616.589600 405.356659,597.000916 
	C391.566528,595.406677 391.565826,595.406433 387.367493,607.264221 
	C386.811737,608.833801 386.293732,610.417297 385.714233,611.977966 
	C384.209564,616.030273 382.680359,620.073425 380.740936,625.238953 
	C376.068634,614.671204 371.997589,605.463318 367.501251,595.293579 
	C363.087463,605.772827 359.110870,615.214050 354.544189,626.056335 
	C350.902435,616.398987 347.894958,608.168457 344.642303,600.036011 
	C344.064819,598.592285 342.581451,596.661865 341.319427,596.501038 
	C337.609039,596.028076 333.799591,596.332336 329.294067,596.332336 
	C335.651733,612.635132 341.742493,628.253540 348.087250,644.602417 
M258.087708,637.352661 
	C262.624786,646.929565 270.215088,652.517395 280.531464,654.568787 
	C294.599457,657.366211 308.896362,649.729614 314.240601,636.544128 
	C319.493652,623.583618 314.967468,608.594543 303.579437,601.238037 
	C292.305389,593.955139 277.133331,594.611511 266.596710,602.837952 
	C256.580078,610.658386 253.301956,623.259338 258.087708,637.352661 
M579.441162,641.915894 
	C588.900085,626.002319 584.081604,607.180237 568.602356,599.577209 
	C552.306763,591.573120 533.190186,598.201416 526.552979,614.156982 
	C519.950562,630.028931 527.691345,647.406616 543.933960,653.176208 
	C557.151428,657.871216 570.078369,653.944824 579.441162,641.915894 
M656.857788,629.474121 
	C656.857788,637.574524 656.857788,645.674866 656.857788,653.896973 
	C666.156860,653.896973 674.987732,654.376648 683.747070,653.789551 
	C698.521790,652.799255 709.241394,641.562500 709.941528,627.188721 
	C710.711792,611.374146 701.985535,599.489258 686.543030,597.522339 
	C676.925720,596.297424 667.025391,597.294861 656.861389,597.294861 
	C656.861389,607.562500 656.861389,618.022339 656.857788,629.474121 
M831.052612,627.531982 
	C836.376709,622.012695 837.146057,615.498596 834.815735,608.550842 
	C832.406494,601.367920 826.451599,597.875122 819.595947,597.369873 
	C809.532043,596.628113 799.372925,597.178772 789.115784,597.178772 
	C789.115784,616.006470 789.115784,634.882202 789.115784,653.716797 
	C793.630249,653.716797 797.849060,653.716797 802.346680,653.716797 
	C802.346680,647.073792 802.346680,640.800903 802.346680,634.555176 
	C805.905823,633.193176 808.145874,634.020935 809.918701,637.253357 
	C812.555420,642.060974 815.524170,646.693359 818.509216,651.298218 
	C819.236511,652.420288 820.527771,653.848877 821.644836,653.927429 
	C825.987671,654.233093 830.364807,654.051941 835.569031,654.051941 
	C830.423645,646.500916 825.892944,639.851868 821.448914,633.330078 
	C824.869995,631.331299 827.699707,629.678040 831.052612,627.531982 
M199.520996,654.087341 
	C206.148880,653.751221 212.895264,654.085571 219.379944,652.939270 
	C232.842194,650.559509 241.075104,640.267090 241.407104,626.619019 
	C241.766220,611.856995 234.607544,600.898132 220.793655,598.280518 
	C210.511978,596.332092 199.776657,596.777527 189.240753,596.156677 
	C189.240753,616.107178 189.240753,634.964905 189.240753,654.087646 
	C192.577332,654.087646 195.554291,654.087646 199.520996,654.087341 
M768.835571,608.735229 
	C769.512878,604.830750 770.190186,600.926270 770.879211,596.954590 
	C755.471619,596.954590 741.418213,596.954590 727.526672,596.954590 
	C727.526672,616.137146 727.526672,634.888733 727.526672,653.724365 
	C742.140625,653.724365 756.399658,653.724365 770.872009,653.724365 
	C770.872009,649.876953 770.872009,646.303284 770.872009,642.020447 
	C760.748291,642.020447 750.856628,642.020447 741.121643,642.020447 
	C741.121643,637.915283 741.121643,634.527466 741.121643,630.731018 
	C750.287659,630.731018 759.034363,630.731018 767.830627,630.731018 
	C767.830627,626.718994 767.830627,623.139526 767.830627,619.104492 
	C758.740967,619.104492 749.975769,619.104492 741.131531,619.104492 
	C741.131531,615.433899 741.131531,612.232361 741.131531,608.797058 
	C750.318359,608.797058 759.132812,608.797058 768.835571,608.735229 
M436.448120,627.712463 
	C445.806213,636.584106 455.164337,645.455750 464.946106,654.729004 
	C464.946106,634.970703 464.946106,615.908325 464.946106,596.552368 
	C460.583893,596.552368 456.528564,596.552368 451.983337,596.552368 
	C451.983337,605.705811 451.983337,614.577637 451.983337,624.659729 
	C441.039490,614.251343 430.958435,604.663452 420.237335,594.466858 
	C420.237335,615.257935 420.237335,634.639526 420.237335,653.946167 
	C424.645599,653.946167 428.697815,653.946167 433.265808,653.946167 
	C433.265808,644.338440 433.265808,635.137573 433.265808,625.351807 
	C434.564514,626.262207 435.220825,626.722290 436.448120,627.712463 
M627.246033,643.858276 
	C632.737366,654.952759 632.737427,654.953308 644.429504,653.862915 
	C644.569641,653.849731 644.699951,653.730896 645.406433,653.366699 
	C635.989075,633.302429 626.562805,613.218994 616.799377,592.417358 
	C607.156433,613.573547 598.024170,633.609314 588.701477,654.062866 
	C593.008179,654.062866 596.674805,654.273438 600.294189,653.952332 
	C601.618164,653.834900 603.747742,652.637329 603.948853,651.622986 
	C605.654175,643.021790 611.435547,641.961853 618.699097,642.973694 
	C621.312317,643.337830 623.999817,643.169189 627.246033,643.858276 
M497.590424,654.121338 
	C504.178558,654.121338 510.766663,654.121338 517.237244,654.121338 
	C517.237244,649.845703 517.237244,646.285522 517.237244,642.125916 
	C510.415405,642.125916 504.018616,642.125916 497.189667,642.125916 
	C497.189667,626.603577 497.189667,611.686035 497.189667,596.656494 
	C492.670807,596.656494 488.621155,596.656494 484.471741,596.656494 
	C484.471741,615.935425 484.471741,634.839233 484.471741,654.124268 
	C488.684509,654.124268 492.654602,654.124268 497.590424,654.121338 
z"/>
<path fill="#FAFBFA" opacity="1.000000" stroke="none" 
	d="
M522.059937,558.790039 
	C518.439636,558.790710 515.308411,558.790710 511.821472,558.790710 
	C511.821472,501.457458 511.821472,444.524384 511.821472,387.085510 
	C523.101746,387.085510 534.366394,386.920837 545.614685,387.274048 
	C547.189697,387.323517 548.953796,389.713562 550.177124,391.357452 
	C571.463806,419.962769 592.678467,448.621765 613.914734,477.264618 
	C614.892578,478.583557 615.926025,479.861298 617.770752,482.235809 
	C617.770752,449.861298 617.770752,418.710510 617.770752,387.240601 
	C631.814941,387.240601 645.215942,387.240601 659.082520,387.240601 
	C659.082520,444.340179 659.082520,501.241364 659.082520,558.767578 
	C648.237671,558.767578 637.464294,558.907104 626.703003,558.608276 
	C625.190613,558.566284 623.425781,556.617737 622.303528,555.149719 
	C600.948975,527.217468 579.675171,499.223663 558.377563,471.247894 
	C557.087646,469.553528 555.739746,467.903381 553.445679,465.001740 
	C553.445679,497.000763 553.445679,527.513672 553.445679,558.789429 
	C542.731506,558.789429 532.640259,558.789429 522.059937,558.790039 
z"/>
<path fill="#FBFAFA" opacity="1.000000" stroke="none" 
	d="
M814.651611,396.311157 
	C847.368591,415.123138 863.691833,452.879547 855.773132,490.845734 
	C847.941956,528.392212 818.227661,555.862610 780.631165,560.380798 
	C724.278870,567.152954 677.520203,523.728394 683.495178,463.812439 
	C689.705627,401.534119 751.949890,367.639038 810.293030,394.145325 
	C811.657166,394.765076 812.981995,395.471558 814.651611,396.311157 
M729.646301,493.704590 
	C739.351807,511.605164 754.617126,519.506042 774.646973,518.064575 
	C792.462341,516.782410 808.325989,504.035675 813.633362,486.730682 
	C819.306885,468.231567 814.819031,452.009216 800.683838,438.938812 
	C785.385132,424.792542 760.468323,424.233337 742.842834,437.033295 
	C725.606689,449.550476 720.169128,472.026703 729.646301,493.704590 
z"/>
<path fill="#FAFAF9" opacity="1.000000" stroke="none" 
	d="
M480.559113,511.635620 
	C471.230530,540.136597 451.309235,555.390442 422.589539,559.699768 
	C408.731201,561.779114 394.939301,560.855408 381.673950,556.017578 
	C353.987152,545.920349 338.612000,525.902527 336.162689,496.717133 
	C334.898010,481.647430 335.415649,466.419769 335.322327,451.262268 
	C335.202301,431.765686 335.277313,412.267883 335.268494,392.770630 
	C335.267670,390.983368 335.268341,389.196106 335.268341,387.273590 
	C349.541260,387.273590 363.280304,387.273590 377.663544,387.273590 
	C377.663544,389.712738 377.658936,391.835876 377.664246,393.959015 
	C377.736847,422.954865 377.758636,451.950989 377.934570,480.946228 
	C377.964752,485.921844 378.243591,490.966675 379.116730,495.852844 
	C381.481201,509.084808 390.794952,517.801392 404.248077,519.106140 
	C409.476471,519.613098 414.993774,519.568298 420.096893,518.466248 
	C433.276917,515.620056 440.951172,505.525635 442.105347,490.434967 
	C442.486023,485.457977 442.481689,480.444611 442.494659,475.447479 
	C442.565521,448.118042 442.587158,420.788483 442.625122,393.458984 
	C442.627869,391.476074 442.625519,389.493164 442.625519,387.219421 
	C456.574524,387.219421 470.154816,387.219421 483.884644,387.219421 
	C484.050812,387.912537 484.329712,388.533508 484.329987,389.154602 
	C484.345551,422.313904 484.555878,455.475739 484.166656,488.630524 
	C484.077972,496.186737 481.908325,503.718506 480.559113,511.635620 
z"/>
<path fill="#FAFAF9" opacity="1.000000" stroke="none" 
	d="
M275.115814,430.722046 
	C263.420959,425.308807 251.556137,422.301758 238.978455,422.796997 
	C230.631882,423.125641 225.125946,426.815796 224.256531,432.290649 
	C223.441833,437.420837 226.896484,442.240906 234.829102,445.041718 
	C243.600098,448.138580 252.690933,450.323364 261.620087,452.980560 
	C269.116943,455.211548 276.661835,457.319305 284.047455,459.879700 
	C327.109558,474.808136 320.685699,527.442566 296.442322,545.614624 
	C284.104126,554.863037 270.283325,559.479980 255.174866,560.255554 
	C227.931198,561.654175 202.994034,554.988708 181.392700,537.729431 
	C178.826782,535.679321 176.568726,533.243835 174.038010,530.864807 
	C181.356750,520.196411 188.406387,509.920319 195.815933,499.119537 
	C197.387482,500.530579 198.669495,501.725220 199.997025,502.866913 
	C215.506180,516.205017 233.363235,523.374451 253.945953,522.873657 
	C257.499054,522.787170 261.296265,521.867493 264.499237,520.329834 
	C273.536224,515.991394 274.435028,505.183960 265.932465,499.919708 
	C260.791229,496.736572 254.769928,494.805603 248.943466,492.937805 
	C239.909470,490.041718 230.682541,487.752930 221.582993,485.053070 
	C218.240036,484.061188 214.997391,482.704742 211.758926,481.391479 
	C194.541580,474.409363 182.791031,462.700378 181.538437,443.386017 
	C180.284363,424.048798 187.836349,408.246582 203.536606,396.705658 
	C213.439850,389.426056 224.807312,385.560760 236.973267,384.623230 
	C263.358459,382.589966 287.212769,388.861145 307.109344,407.184723 
	C308.435089,408.405640 309.594574,409.807068 310.927002,411.226379 
	C304.272797,421.305389 297.789612,431.125366 291.409607,440.789032 
	C285.828613,437.321014 280.643219,434.098816 275.115814,430.722046 
z"/>
<path fill="#DAA03E" opacity="1.000000" stroke="none" 
	d="
M904.255737,380.738464 
	C906.022644,405.740265 890.896118,429.050842 870.848450,431.721985 
	C867.721863,417.553406 860.480835,405.444733 850.950439,395.978546 
	C864.842896,381.321838 878.494263,366.919525 892.573181,352.066132 
	C899.955505,360.685486 902.963318,370.121185 904.255737,380.738464 
z"/>
<path fill="#D9A03E" opacity="1.000000" stroke="none" 
	d="
M807.029358,361.081238 
	C825.179199,329.177673 868.507812,329.071136 884.313293,344.467834 
	C870.658264,359.108368 856.995728,373.757019 844.384827,387.278107 
	C830.411987,380.287750 817.883728,374.020081 804.619385,367.384186 
	C805.060303,366.215179 805.965454,363.814972 807.029358,361.081238 
z"/>
<path fill="#F5F5F4" opacity="1.000000" stroke="none" 
	d="
M347.960266,644.237183 
	C341.742493,628.253540 335.651733,612.635132 329.294067,596.332336 
	C333.799591,596.332336 337.609039,596.028076 341.319427,596.501038 
	C342.581451,596.661865 344.064819,598.592285 344.642303,600.036011 
	C347.894958,608.168457 350.902435,616.398987 354.544189,626.056335 
	C359.110870,615.214050 363.087463,605.772827 367.501251,595.293579 
	C371.997589,605.463318 376.068634,614.671204 380.740936,625.238953 
	C382.680359,620.073425 384.209564,616.030273 385.714233,611.977966 
	C386.293732,610.417297 386.811737,608.833801 387.367493,607.264221 
	C391.565826,595.406433 391.566528,595.406677 405.356659,597.000916 
	C397.772552,616.589600 390.263611,635.984192 382.208313,656.789856 
	C377.156433,645.213257 372.685669,634.968323 367.697205,623.537109 
	C362.709198,634.951660 358.230957,645.199768 353.752686,655.447815 
	C353.309784,655.543762 352.866882,655.639709 352.423981,655.735657 
	C350.978424,652.024597 349.532837,648.313477 347.960266,644.237183 
z"/>
<path fill="#F6F6F6" opacity="1.000000" stroke="none" 
	d="
M257.945709,636.995361 
	C253.301956,623.259338 256.580078,610.658386 266.596710,602.837952 
	C277.133331,594.611511 292.305389,593.955139 303.579437,601.238037 
	C314.967468,608.594543 319.493652,623.583618 314.240601,636.544128 
	C308.896362,649.729614 294.599457,657.366211 280.531464,654.568787 
	C270.215088,652.517395 262.624786,646.929565 257.945709,636.995361 
M275.187744,638.395691 
	C276.601562,639.254883 277.934021,640.307617 279.442535,640.941589 
	C288.435120,644.720886 298.516418,640.455261 301.586548,631.656860 
	C304.949951,622.018005 299.952332,611.945129 290.549011,609.410278 
	C283.379730,607.477600 275.952820,610.256836 272.245148,616.259766 
	C268.067932,623.022827 268.970123,631.159729 275.187744,638.395691 
z"/>
<path fill="#F6F6F6" opacity="1.000000" stroke="none" 
	d="
M579.239807,642.214722 
	C570.078369,653.944824 557.151428,657.871216 543.933960,653.176208 
	C527.691345,647.406616 519.950562,630.028931 526.552979,614.156982 
	C533.190186,598.201416 552.306763,591.573120 568.602356,599.577209 
	C584.081604,607.180237 588.900085,626.002319 579.239807,642.214722 
M566.023926,637.473938 
	C572.559570,628.502075 571.464233,617.328430 563.511475,611.843750 
	C556.742798,607.175720 547.316467,608.175903 542.166382,614.108643 
	C536.590576,620.531860 536.737183,631.420654 542.481201,637.487793 
	C548.275574,643.607910 558.129456,643.829468 566.023926,637.473938 
z"/>
<path fill="#F7F7F6" opacity="1.000000" stroke="none" 
	d="
M656.859619,628.978149 
	C656.861389,618.022339 656.861389,607.562500 656.861389,597.294861 
	C667.025391,597.294861 676.925720,596.297424 686.543030,597.522339 
	C701.985535,599.489258 710.711792,611.374146 709.941528,627.188721 
	C709.241394,641.562500 698.521790,652.799255 683.747070,653.789551 
	C674.987732,654.376648 666.156860,653.896973 656.857788,653.896973 
	C656.857788,645.674866 656.857788,637.574524 656.859619,628.978149 
M685.430237,609.561401 
	C680.385132,609.270630 675.339966,608.979919 670.353638,608.692566 
	C670.353638,620.299133 670.353638,631.025513 670.353638,641.694946 
	C684.848816,643.599548 692.614258,640.375671 695.296875,631.536255 
	C698.115112,622.250183 694.639160,613.950134 685.430237,609.561401 
z"/>
<path fill="#F7F7F6" opacity="1.000000" stroke="none" 
	d="
M830.791016,627.778381 
	C827.699707,629.678040 824.869995,631.331299 821.448914,633.330078 
	C825.892944,639.851868 830.423645,646.500916 835.569031,654.051941 
	C830.364807,654.051941 825.987671,654.233093 821.644836,653.927429 
	C820.527771,653.848877 819.236511,652.420288 818.509216,651.298218 
	C815.524170,646.693359 812.555420,642.060974 809.918701,637.253357 
	C808.145874,634.020935 805.905823,633.193176 802.346680,634.555176 
	C802.346680,640.800903 802.346680,647.073792 802.346680,653.716797 
	C797.849060,653.716797 793.630249,653.716797 789.115784,653.716797 
	C789.115784,634.882202 789.115784,616.006470 789.115784,597.178772 
	C799.372925,597.178772 809.532043,596.628113 819.595947,597.369873 
	C826.451599,597.875122 832.406494,601.367920 834.815735,608.550842 
	C837.146057,615.498596 836.376709,622.012695 830.791016,627.778381 
M819.837341,620.460571 
	C820.551270,618.097961 822.362061,615.329102 821.678833,613.483887 
	C820.957947,611.537109 817.997986,609.559998 815.766357,609.215637 
	C811.450012,608.549744 806.958252,609.021118 802.541870,609.021118 
	C802.541870,613.698730 802.541870,617.876648 802.541870,622.961487 
	C808.407959,622.240173 813.771790,621.580688 819.837341,620.460571 
z"/>
<path fill="#F7F7F6" opacity="1.000000" stroke="none" 
	d="
M199.026123,654.087524 
	C195.554291,654.087646 192.577332,654.087646 189.240753,654.087646 
	C189.240753,634.964905 189.240753,616.107178 189.240753,596.156677 
	C199.776657,596.777527 210.511978,596.332092 220.793655,598.280518 
	C234.607544,600.898132 241.766220,611.856995 241.407104,626.619019 
	C241.075104,640.267090 232.842194,650.559509 219.379944,652.939270 
	C212.895264,654.085571 206.148880,653.751221 199.026123,654.087524 
M226.294250,617.540833 
	C221.671478,609.494263 215.190979,607.292847 202.256622,609.466553 
	C202.256622,620.179016 202.256622,630.920471 202.256622,641.854126 
	C206.959488,641.854126 211.480820,642.393005 215.815186,641.722778 
	C221.724716,640.808899 226.008179,637.025696 226.953354,631.026672 
	C227.605499,626.887451 226.795929,622.517944 226.294250,617.540833 
z"/>
<path fill="#F3F4F3" opacity="1.000000" stroke="none" 
	d="
M768.391418,608.766113 
	C759.132812,608.797058 750.318359,608.797058 741.131531,608.797058 
	C741.131531,612.232361 741.131531,615.433899 741.131531,619.104492 
	C749.975769,619.104492 758.740967,619.104492 767.830627,619.104492 
	C767.830627,623.139526 767.830627,626.718994 767.830627,630.731018 
	C759.034363,630.731018 750.287659,630.731018 741.121643,630.731018 
	C741.121643,634.527466 741.121643,637.915283 741.121643,642.020447 
	C750.856628,642.020447 760.748291,642.020447 770.872009,642.020447 
	C770.872009,646.303284 770.872009,649.876953 770.872009,653.724365 
	C756.399658,653.724365 742.140625,653.724365 727.526672,653.724365 
	C727.526672,634.888733 727.526672,616.137146 727.526672,596.954590 
	C741.418213,596.954590 755.471619,596.954590 770.879211,596.954590 
	C770.190186,600.926270 769.512878,604.830750 768.391418,608.766113 
z"/>
<path fill="#F7F7F6" opacity="1.000000" stroke="none" 
	d="
M436.162659,627.447388 
	C435.220825,626.722290 434.564514,626.262207 433.265808,625.351807 
	C433.265808,635.137573 433.265808,644.338440 433.265808,653.946167 
	C428.697815,653.946167 424.645599,653.946167 420.237335,653.946167 
	C420.237335,634.639526 420.237335,615.257935 420.237335,594.466858 
	C430.958435,604.663452 441.039490,614.251343 451.983337,624.659729 
	C451.983337,614.577637 451.983337,605.705811 451.983337,596.552368 
	C456.528564,596.552368 460.583893,596.552368 464.946106,596.552368 
	C464.946106,615.908325 464.946106,634.970703 464.946106,654.729004 
	C455.164337,645.455750 445.806213,636.584106 436.162659,627.447388 
z"/>
<path fill="#F5F5F4" opacity="1.000000" stroke="none" 
	d="
M626.949707,643.551025 
	C623.999817,643.169189 621.312317,643.337830 618.699097,642.973694 
	C611.435547,641.961853 605.654175,643.021790 603.948853,651.622986 
	C603.747742,652.637329 601.618164,653.834900 600.294189,653.952332 
	C596.674805,654.273438 593.008179,654.062866 588.701477,654.062866 
	C598.024170,633.609314 607.156433,613.573547 616.799377,592.417358 
	C626.562805,613.218994 635.989075,633.302429 645.406433,653.366699 
	C644.699951,653.730896 644.569641,653.849731 644.429504,653.862915 
	C632.737427,654.953308 632.737366,654.952759 626.949707,643.551025 
M614.070129,631.069702 
	C616.329895,631.069702 618.589661,631.069702 621.530884,631.069702 
	C620.027832,627.552429 618.793274,624.663574 616.925110,620.292053 
	C615.375366,624.762573 614.331299,627.774353 614.070129,631.069702 
z"/>
<path fill="#F3F4F3" opacity="1.000000" stroke="none" 
	d="
M497.107544,654.122803 
	C492.654602,654.124268 488.684509,654.124268 484.471741,654.124268 
	C484.471741,634.839233 484.471741,615.935425 484.471741,596.656494 
	C488.621155,596.656494 492.670807,596.656494 497.189667,596.656494 
	C497.189667,611.686035 497.189667,626.603577 497.189667,642.125916 
	C504.018616,642.125916 510.415405,642.125916 517.237244,642.125916 
	C517.237244,646.285522 517.237244,649.845703 517.237244,654.121338 
	C510.766663,654.121338 504.178558,654.121338 497.107544,654.122803 
z"/>
<path fill="#DBA13C" opacity="1.000000" stroke="none" 
	d="
M729.470032,493.371338 
	C720.169128,472.026703 725.606689,449.550476 742.842834,437.033295 
	C760.468323,424.233337 785.385132,424.792542 800.683838,438.938812 
	C814.819031,452.009216 819.306885,468.231567 813.633362,486.730682 
	C808.325989,504.035675 792.462341,516.782410 774.646973,518.064575 
	C754.617126,519.506042 739.351807,511.605164 729.470032,493.371338 
z"/>
<path fill="#34312D" opacity="1.000000" stroke="none" 
	d="
M274.915344,638.140747 
	C268.970123,631.159729 268.067932,623.022827 272.245148,616.259766 
	C275.952820,610.256836 283.379730,607.477600 290.549011,609.410278 
	C299.952332,611.945129 304.949951,622.018005 301.586548,631.656860 
	C298.516418,640.455261 288.435120,644.720886 279.442535,640.941589 
	C277.934021,640.307617 276.601562,639.254883 274.915344,638.140747 
z"/>
<path fill="#34312D" opacity="1.000000" stroke="none" 
	d="
M565.762878,637.739624 
	C558.129456,643.829468 548.275574,643.607910 542.481201,637.487793 
	C536.737183,631.420654 536.590576,620.531860 542.166382,614.108643 
	C547.316467,608.175903 556.742798,607.175720 563.511475,611.843750 
	C571.464233,617.328430 572.559570,628.502075 565.762878,637.739624 
z"/>
<path fill="#34312D" opacity="1.000000" stroke="none" 
	d="
M685.818604,609.696411 
	C694.639160,613.950134 698.115112,622.250183 695.296875,631.536255 
	C692.614258,640.375671 684.848816,643.599548 670.353638,641.694946 
	C670.353638,631.025513 670.353638,620.299133 670.353638,608.692566 
	C675.339966,608.979919 680.385132,609.270630 685.818604,609.696411 
z"/>
<path fill="#373531" opacity="1.000000" stroke="none" 
	d="
M819.486450,620.690857 
	C813.771790,621.580688 808.407959,622.240173 802.541870,622.961487 
	C802.541870,617.876648 802.541870,613.698730 802.541870,609.021118 
	C806.958252,609.021118 811.450012,608.549744 815.766357,609.215637 
	C817.997986,609.559998 820.957947,611.537109 821.678833,613.483887 
	C822.362061,615.329102 820.551270,618.097961 819.486450,620.690857 
z"/>
<path fill="#33302C" opacity="1.000000" stroke="none" 
	d="
M226.466934,617.896118 
	C226.795929,622.517944 227.605499,626.887451 226.953354,631.026672 
	C226.008179,637.025696 221.724716,640.808899 215.815186,641.722778 
	C211.480820,642.393005 206.959488,641.854126 202.256622,641.854126 
	C202.256622,630.920471 202.256622,620.179016 202.256622,609.466553 
	C215.190979,607.292847 221.671478,609.494263 226.466934,617.896118 
z"/>
<path fill="#373531" opacity="1.000000" stroke="none" 
	d="
M613.678711,630.927979 
	C614.331299,627.774353 615.375366,624.762573 616.925110,620.292053 
	C618.793274,624.663574 620.027832,627.552429 621.530884,631.069702 
	C618.589661,631.069702 616.329895,631.069702 613.678711,630.927979 
z"/>
</svg>